<svg xmlns="http://www.w3.org/2000/svg" width="16" height="16" viewBox="0 0 16 16">
    <defs>
        <filter id="prefix__a">
            <feColorMatrix in="SourceGraphic" values="0 0 0 0 0.239216 0 0 0 0 0.215686 0 0 0 0 0.741176 0 0 0 1.000000 0"/>
        </filter>
    </defs>
    <g fill="none" fill-rule="evenodd" filter="url(#prefix__a)" transform="translate(0 -1)">
        <path fill="#262626" d="M11.913 7.463c-.11-.155-.305-.249-.521-.249H9.27l1.274-3.417c.059-.157.026-.323-.09-.455-.116-.133-.294-.209-.49-.209h-3.02c-.263 0-.494.14-.577.35l-2.232 5.61c-.013.033-.03.065-.047.097-.062.117-.147.278-.028.431.041.054.142.144.348.144h3.146L6.128 14.55c-.037.12.037.246.173.295.04.015.08.022.121.022.1 0 .197-.042.255-.116l5.25-6.785c.102-.16.097-.347-.014-.503"/>
    </g>
</svg>
