<svg xmlns="http://www.w3.org/2000/svg" width="90" height="23" viewBox="0 0 90 23">
    <path fill="#FF2300" d="M0 11.539C0 7.793 2.723 5.49 7.077 5.49h4.508V0h5.642v17.25H7.056C2.723 17.25 0 15.037 0 11.539zm5.977-.026c0 1.409.89 2.143 2.598 2.143h3.027V9.344H8.603c-1.709 0-2.626.741-2.626 2.17zm47.46-.052c0 3.746-2.722 6.048-7.076 6.048h-4.508V23H36.21V5.75h10.17c4.334 0 7.056 2.213 7.056 5.711zm-5.976.026c0-1.409-.89-2.143-2.602-2.143h-3.023v4.312h3.002c1.711 0 2.623-.741 2.623-2.17zM90 11.46c0 3.746-2.723 6.048-7.077 6.048h-4.508V23h-5.642V5.75h10.171C87.277 5.75 90 7.963 90 11.461zm-5.977.026c0-1.409-.89-2.143-2.602-2.143h-3.023v4.312H81.4c1.712 0 2.623-.741 2.623-2.17zm-29.18-.015c0-4.197 3.402-6.44 8.087-6.44 4.684 0 8.086 2.243 8.086 6.44 0 4.198-3.402 6.497-8.086 6.497-4.685-.007-8.086-2.3-8.086-6.497zm10.9-.175c0-2.019-1.048-3.031-2.638-3.031-1.589 0-2.636 1.012-2.636 3.03 0 1.992 1.047 3.079 2.636 3.079 1.597-.007 2.637-1.087 2.637-3.078zm-31.29.472c0-4.197-2.733-6.738-7.672-6.738-4.743 0-7.797 2.54-7.797 6.517 0 4.025 3.026 6.42 8.069 6.42 3.171 0 5.73-1.173 7.08-3.078l-4.02-1.45c-.696.752-1.746 1.167-2.852 1.167-1.662 0-2.817-.663-3.116-1.788-.02-.076-.035-.145-.048-.228h10.357v-.822zm-10.547-1.707c.13-1.335 1.07-2.156 2.702-2.156s2.572.868 2.572 2.157h-5.274z"/>
</svg>
