<svg xmlns="http://www.w3.org/2000/svg" width="28" height="34" viewBox="0 0 28 34">
    <g fill="none" fill-rule="evenodd">
        <path fill-rule="nonzero" stroke="#262626" stroke-width="2" d="M13.89 1.047c3.57 3.326 7.586 4.893 12.874 4.893.167 1.026.183 1.89.2 2.804.092 4.923.245 10.9-2.48 15.953-1.806 3.348-4.9 6.262-10.113 8.177-5.517-1.919-8.795-4.838-10.708-8.197C.788 19.631.944 13.661 1.036 8.774c.017-.925.033-1.799.033-2.644 5.454-.19 9.47-1.757 12.822-5.083z"/>
        <path fill="#262626" stroke="#FFF" stroke-width=".25" d="M18.011 13.35l-5.623 5.766-2.4-2.46c-.454-.467-1.192-.467-1.647 0-.455.466-.455 1.222 0 1.689l3.223 3.305c.228.233.526.35.824.35.298 0 .597-.117.824-.35l6.447-6.61c.455-.467.455-1.224 0-1.69-.455-.467-1.193-.467-1.648 0z"/>
    </g>
</svg>
